Coordinates
version=1
nRows=19
nColumns=36
inDegrees=yes

Units are S.I. units (second, meters, Newtons, ...)
If the header above contains a line with 'inDegrees', this indicates whether rotational values are in degrees (yes) or radians (no).

endheader
time	pelvis_tilt	pelvis_list	pelvis_rotation	pelvis_tx	pelvis_ty	pelvis_tz	hip_flexion_r	hip_adduction_r	hip_rotation_r	knee_angle_r	knee_angle_r_beta	ankle_angle_r	subtalar_angle_r	mtp_angle_r	hip_flexion_l	hip_adduction_l	hip_rotation_l	knee_angle_l	knee_angle_l_beta	ankle_angle_l	subtalar_angle_l	mtp_angle_l	lumbar_extension	lumbar_bending	lumbar_rotation	arm_flex_r	arm_add_r	arm_rot_r	elbow_flex_r	pro_sup_r	arm_flex_l	arm_add_l	arm_rot_l	elbow_flex_l	pro_sup_l
      2.85000000	      4.60638583	      0.36119067	      0.23914180	      0.47372757	      0.88882459	      0.01583051	     -7.45978428	      6.71114362	     -2.30084413	      1.20650011	      0.02105740	     19.15857731	     -6.36208481	     -7.49999987	     17.47995861	     -1.35808312	      2.84261185	     20.33044547	      0.35483321	     -3.06831303	     -8.19427933	     -7.49999987	     -3.70236365	      5.64769771	     -0.46107791	     19.37934755	      0.02370552	     59.07373554	    127.65828773	     93.51850796	     25.81489310	      2.96810362	     64.66628870	    125.52458465	     63.91296072
      2.86666670	      4.85860412	      0.40550057	      0.21732483	      0.46862998	      0.88928019	      0.01339912	     -7.35781119	      6.62950670	     -2.72337260	      1.73477258	      0.03027749	     19.11242432	     -6.14494522	     -7.49999987	     17.73418677	     -1.20845242	      2.56026529	     20.65820074	      0.36055362	     -3.30381899	     -8.47673221	     -7.49999987	     -4.14800517	      5.74262957	     -0.54318752	     19.71331147	      0.03932859	     59.16741837	    127.66111444	     93.57478673	     26.05603588	      3.16809234	     64.76983247	    125.18015497	     63.87444529
      2.88333330	      5.00029304	      0.48763605	      0.23941286	      0.46862292	      0.88675434	      0.01338399	     -7.36697695	      6.53217532	     -2.74603263	      1.83352698	      0.03200108	     19.09098716	     -6.12482584	     -7.49999987	     18.09543458	     -1.01157418	      2.42715197	     20.56516806	      0.35892989	     -3.28411933	     -8.51880120	     -7.49999987	     -4.33282955	      5.86028872	     -0.57181518	     19.78880876	      0.06693579	     59.13751191	    127.66417509	     93.57574340	     26.06307686	      3.25295624	     64.75898332	    125.14897189	     63.86967991
      2.90000000	      4.95350506	      0.51434204	     -0.03671369	      0.45930901	      0.89117711	      0.01451653	     -6.64100100	      6.46799851	     -2.94836861	      2.47115299	      0.04312976	     19.20583982	     -6.07430285	     -7.49999987	     18.93361654	     -0.91985956	      2.30152139	     19.92363490	      0.34773303	     -3.48350418	     -8.31399303	     -7.49999987	     -4.80872946	      5.99127752	     -0.48496753	     20.50401872	      0.22027397	     59.13969011	    127.61167238	     93.52984514	     26.34300496	      3.52445108	     64.59377627	    125.00189387	     63.85392663
      2.91666670	      4.86027907	      0.66560342	     -0.19444778	      0.45369870	      0.89283647	      0.01300899	     -6.09951678	      6.27305066	     -3.09146842	      2.51394952	      0.04387670	     19.38847547	     -5.69018799	     -7.49999987	     20.14483896	     -0.67110775	      2.30878124	     19.39046272	      0.33842742	     -4.24071992	     -8.52279710	     -7.49999987	     -5.29083365	      6.01580594	     -0.51234881	     21.45420183	      0.14961236	     59.80519631	    127.49151552	     93.60826135	     26.68863769	      3.53968405	     64.33003425	    124.57955992	     63.88075551
      2.93333330	      4.79144534	      0.73726957	     -0.28020308	      0.45355390	      0.89536012	      0.01285739	     -5.82713315	      6.10267211	     -3.33316691	      1.91670143	      0.03345275	     19.11452906	     -5.07184411	     -7.49999987	     21.18361877	     -0.53630680	      2.76300830	     18.42339365	      0.32154888	     -4.98917683	     -8.44406154	     -7.49999987	     -5.73524396	      6.24626643	     -0.70769887	     22.27437788	      0.17684651	     60.39738008	    127.22463620	     93.35149527	     26.68485172	      3.49233832	     63.80516002	    124.21773701	     64.35904484
      2.95000000	      4.56523762	      0.60835846	     -0.59318506	      0.44433319	      0.89579242	      0.01413270	     -4.97628433	      6.13410516	     -3.29437275	      1.62334104	      0.02833265	     18.56712753	     -4.79044044	     -7.49999987	     22.55007456	     -0.77968839	      2.90666858	     17.08575022	      0.29820260	     -5.54969996	     -7.64599383	     -7.49999987	     -6.30625579	      6.58371802	     -0.53705367	     23.13472848	      0.08623265	     61.03031944	    127.38369458	     93.60006850	     27.10168086	      3.64346956	     63.29194351	    123.42337799	     64.47864680
      2.96666670	      4.47776374	      0.48653841	     -0.52086143	      0.44428619	      0.89587601	      0.01374130	     -4.67480776	      6.21497696	     -3.60411890	      1.01757026	      0.01775995	     18.20742857	     -4.16050050	     -7.49999987	     23.76004067	     -0.87357631	      3.22929356	     15.94481621	      0.27828954	     -6.28925429	     -7.13828974	     -7.49999987	     -6.85197635	      6.91313949	     -0.61926498	     23.84408631	      0.11422278	     61.81035425	    127.53657582	     94.01654829	     27.31490829	      3.71920359	     62.71503444	    122.82754666	     65.35393446
      2.98333330	      4.30654776	      0.33493785	     -0.65378035	      0.43955547	      0.89915585	      0.01174251	     -4.02709312	      6.25424293	     -3.82485673	      1.04507852	      0.01824006	     17.64138432	     -3.91807543	     -7.49999987	     24.93216895	     -1.08496689	      3.42571320	     14.84105057	      0.25902520	     -6.57980644	     -6.56105775	     -7.49999987	     -7.40298370	      7.23646322	     -0.52537437	     24.30356058	      0.14087616	     62.31000664	    127.79049524	     94.11458897	     27.70968689	      3.86358304	     62.34143156	    122.28746915	     65.37085394
      3.00000000	      4.13292323	      0.15278679	     -0.93011977	      0.43598097	      0.90199834	      0.01493765	     -3.52766799	      6.43691126	     -3.56916368	      1.10097168	      0.01921558	     17.20559698	     -3.86067751	     -7.49999987	     26.08641336	     -1.58089930	      3.77811826	     13.58845581	      0.23716329	     -6.57287212	     -5.59960192	     -7.49999987	     -7.99911078	      7.51248007	     -0.43021731	     25.40840899	      0.01866291	     63.68774676	    127.97717219	     92.10223027	     28.01108440	      3.97932118	     61.72206179	    121.54176772	     65.23309611
      3.01666670	      3.86945181	     -0.08453643	     -1.14744840	      0.43265973	      0.90642273	      0.01846268	     -3.11082121	      6.81098529	     -3.56028075	      1.10788100	      0.01933617	     16.58729432	     -3.45052472	     -7.49999987	     27.05204096	     -2.16531348	      4.29908013	     12.09467039	      0.21109182	     -6.76806129	     -5.01623108	     -7.49999987	     -8.48895178	      7.79630070	     -0.16644908	     25.93141518	      0.08268196	     63.98326210	    127.95771456	     92.22256667	     28.21093234	      3.89556426	     61.44277245	    121.12160501	     65.27207293
      3.03333330	      3.59406006	     -0.13987618	     -1.46488150	      0.42854382	      0.90488471	      0.01673393	     -2.76046983	      6.96427013	     -3.63926988	      1.13182779	      0.01975412	     16.20577504	     -2.72098340	     -7.49999987	     28.15687513	     -2.55506169	      3.93810292	     10.75727313	      0.18774983	     -7.30619790	     -4.14570355	     -7.49999987	     -9.08775181	      7.90853964	      0.01294137	     27.05682733	     -0.12803703	     65.72870912	    127.92013326	     92.89442993	     28.31063650	      3.91957961	     60.76548840	    120.28072627	     65.58239036
      3.05000000	      3.71373534	     -0.16117393	     -1.42339600	      0.43330452	      0.90368642	      0.01329458	     -2.96526780	      6.98703417	     -3.82965500	      1.31109410	      0.02288291	     15.99607016	     -2.15609557	     -7.49999987	     28.86840225	     -2.70134356	      3.95517689	     10.21288925	      0.17824854	     -7.49524331	     -3.98495244	     -7.49999987	    -10.03743935	      8.15743695	     -0.40935153	     28.21377967	     -0.13241167	     66.74468007	    127.79580048	     94.10569332	     28.08587566	      3.82371522	     60.15579931	    120.43129652	     66.51506769
      3.06666670	      3.73374990	     -0.01104788	     -1.36166488	      0.43868335	      0.90094586	      0.01548364	     -3.21409169	      6.91196220	     -3.82560570	      1.73785532	      0.03033130	     15.97206445	     -2.15607557	     -7.49999987	     29.55608757	     -2.86093927	      3.91073984	     10.04990751	      0.17540398	     -7.69388803	     -4.17136610	     -7.49999987	    -10.64954966	      8.03612308	     -0.34402890	     28.54940635	     -0.29220882	     66.82943067	    127.62606703	     94.23355631	     27.74188778	      3.95945978	     60.16061949	    120.44456466	     66.66492392
      3.08333330	      3.57856727	      0.14820644	     -1.49934398	      0.42954264	      0.89954474	      0.01698850	     -2.98470895	      6.85061646	     -3.64972641	      2.26881103	      0.03959822	     15.97018282	     -2.21340311	     -7.49999987	     31.05335297	     -2.82232538	      3.83572463	     10.81353755	      0.18873183	     -7.66857385	     -4.74706529	     -7.49999987	    -11.42406899	      7.94571291	     -0.35694087	     29.36807692	     -0.24036980	     67.50460153	    127.63602145	     94.69615932	     27.62818858	      3.95218694	     60.06317960	    121.00232384	     67.21375328
      3.10000000	      3.23860237	      0.31190863	     -1.52082771	      0.42598962	      0.89589578	      0.02033592	     -2.60412274	      6.95827097	     -2.82306163	      2.56153737	      0.04470726	     15.81005998	     -2.99393276	     -7.49999987	     32.90318953	     -2.90593350	      3.51836163	     11.37724838	      0.19857044	     -7.60479150	     -5.10665973	     -7.49999987	    -12.02598247	      7.69486536	     -0.30609413	     30.23236112	      0.13846500	     68.02566561	    127.55486665	     91.34392477	     27.90789256	      3.93664707	     60.30706220	    121.91706294	     66.90830651
      3.11666670	      3.09497874	      0.51128186	     -1.33374799	      0.43031871	      0.89862755	      0.01712505	     -2.57932884	      6.86618424	     -2.88438146	      2.71651092	      0.04741206	     15.50253082	     -2.93345173	     -7.49999987	     33.98525766	     -2.71029160	      3.16511311	     11.23621391	      0.19610893	     -7.70274789	     -5.07480193	     -7.49999987	    -12.45142831	      7.50000923	     -0.24387881	     30.49657050	      0.26821661	     67.90483868	    127.37485737	     91.47648777	     27.99768076	      4.20854513	     60.32511482	    122.19320588	     67.05488254
      3.13333330	      2.63530907	      0.80918977	     -1.44234100	      0.42693116	      0.89731268	      0.02089609	     -2.01530540	      6.76457187	     -2.10093988	      2.94671317	      0.05142985	     15.12001859	     -3.53581417	     -7.49999987	     35.48993746	     -2.65995380	      2.02068052	     10.91380108	      0.19048176	     -7.23248411	     -4.26362171	     -7.49999987	    -12.69896206	      7.11725815	     -0.16136971	     30.48683668	      0.59010166	     67.93805851	    127.34494111	     98.38407855	     27.84934753	      4.10691304	     60.36203346	    123.19540297	     72.86830082
      3.15000000	      2.50877113	      1.03120059	     -1.29465705	      0.42737353	      0.89864738	      0.02089524	     -1.78950147	      6.64373789	     -1.53078692	      3.03414582	      0.05295583	     14.71929619	     -4.05819455	     -7.49999987	     36.62063430	     -2.48048277	      1.63776687	     10.93822832	      0.19090810	     -7.39781015	     -4.09024332	     -7.49999987	    -13.12490744	      6.78775093	     -0.01125064	     30.32350522	      0.64677440	     67.78592967	    127.15661543	     98.38032832	     28.04342967	      4.14714122	     60.70780866	    123.72687116	     72.91548294
